<svg width="34" height="36" viewBox="0 0 17 18" fill="none" xmlns="http://www.w3.org/2000/svg">
<g filter="url(#filter0_d_0_198)">
<path d="M4.26999 12.28C3.98999 11.92 3.63999 11.19 3.02999 10.28C2.67999 9.78 1.81999 8.83 1.55999 8.34C1.37257 8.04223 1.31818 7.67966 1.40999 7.34C1.56695 6.69421 2.17956 6.26582 2.83999 6.34C3.3508 6.44261 3.82022 6.69297 4.18999 7.06C4.44817 7.30317 4.68566 7.56742 4.89999 7.85C5.05999 8.05 5.09999 8.13 5.27999 8.36C5.45999 8.59 5.57999 8.82 5.48999 8.48C5.41999 7.98 5.29999 7.14 5.12999 6.39C4.99999 5.82 4.96999 5.73 4.84999 5.3C4.72999 4.87 4.65999 4.51 4.52999 4.02C4.41116 3.53857 4.3177 3.05123 4.24999 2.56C4.12395 1.9317 4.21565 1.27921 4.50999 0.71C4.85939 0.38137 5.37192 0.294632 5.80999 0.49C6.25059 0.815336 6.5791 1.26965 6.74999 1.79C7.01206 2.43039 7.18696 3.10306 7.26999 3.79C7.42999 4.79 7.73999 6.25 7.74999 6.55C7.74999 6.18 7.67999 5.4 7.74999 5.05C7.81935 4.68512 8.07295 4.38231 8.41999 4.25C8.7178 4.15863 9.03284 4.13808 9.33999 4.19C9.65003 4.25482 9.92466 4.43315 10.11 4.69C10.3417 5.27339 10.4703 5.8926 10.49 6.52C10.5168 5.97059 10.6108 5.42653 10.77 4.9C10.9371 4.66455 11.1811 4.49479 11.46 4.42C11.7906 4.35956 12.1294 4.35956 12.46 4.42C12.7311 4.51063 12.9682 4.68152 13.14 4.91C13.3518 5.44035 13.48 6.00034 13.52 6.57C13.52 6.71 13.59 6.18 13.81 5.83C13.9243 5.4906 14.211 5.23797 14.5621 5.16728C14.9132 5.09658 15.2754 5.21857 15.5121 5.48728C15.7489 5.75599 15.8243 6.1306 15.71 6.47C15.71 7.12 15.71 7.09 15.71 7.53C15.71 7.97 15.71 8.36 15.71 8.73C15.6736 9.31518 15.5933 9.89681 15.47 10.47C15.296 10.9771 15.0537 11.4582 14.75 11.9C14.2644 12.44 13.8632 13.0502 13.56 13.71C13.4848 14.0378 13.4512 14.3738 13.46 14.71C13.459 15.0206 13.4993 15.33 13.58 15.63C13.1711 15.6732 12.7589 15.6732 12.35 15.63C11.96 15.57 11.48 14.79 11.35 14.55C11.2857 14.4211 11.154 14.3397 11.01 14.3397C10.866 14.3397 10.7343 14.4211 10.67 14.55C10.45 14.93 9.95999 15.62 9.61999 15.66C8.94999 15.74 7.56999 15.66 6.47999 15.66C6.47999 15.66 6.65999 14.66 6.24999 14.3C5.83999 13.94 5.41999 13.52 5.10999 13.24L4.26999 12.28Z" fill="#14E956"/>
<path fill-rule="evenodd" clip-rule="evenodd" d="M16.0843 8.75331C16.085 8.165 16.085 8.165 16.085 7.53V6.5265C16.2127 6.07733 16.1042 5.59198 15.7935 5.23936C15.4681 4.87013 14.9705 4.70252 14.4881 4.79965C14.1594 4.86584 13.8718 5.04807 13.6722 5.30499C13.6195 5.12385 13.5581 4.94588 13.4883 4.77094C13.2223 4.39542 12.9221 4.17908 12.5789 4.06435C12.1523 3.98252 11.7677 3.98252 11.3925 4.05112C11.0171 4.15059 10.7102 4.3569 10.4938 4.64261C10.4823 4.61218 10.4705 4.58184 10.4585 4.55159C10.174 4.13788 9.81831 3.90689 9.41673 3.82294C9.03775 3.75859 8.66364 3.78299 8.30999 3.8915C8.08276 3.97772 7.88745 4.11128 7.73379 4.27857C7.69682 4.07178 7.66621 3.89283 7.64028 3.73075C7.55521 3.02474 7.37183 2.31943 7.09706 1.64797C6.9111 1.07873 6.53593 0.559878 6.03275 0.188329C5.38661 -0.109417 4.71256 0.00465292 4.25307 0.436843L4.17689 0.537751C3.84341 1.18266 3.73951 1.92192 3.88232 2.63376C3.948 3.11544 4.04394 3.61569 4.16592 4.10987C4.22244 4.32314 4.2227 4.32418 4.34226 4.82527L4.37324 4.95415C4.41395 5.12175 4.44952 5.26008 4.48879 5.4008C4.55597 5.64001 4.58192 5.73264 4.60435 5.81571L4.61765 5.86542C4.65884 6.02083 4.69936 6.18831 4.76438 6.47339C4.82399 6.73637 4.87652 7.00062 4.92694 7.28763C4.77672 7.11389 4.6161 6.94619 4.4471 6.78702C4.03226 6.37507 3.49666 6.08942 2.91385 5.97234C2.03379 5.87209 1.24715 6.42218 1.0456 7.25143C0.928845 7.68289 0.999417 8.15337 1.24263 8.53976C1.35801 8.75939 1.58162 9.06112 1.979 9.55363L2.04083 9.63011C2.50211 10.1996 2.58511 10.3019 2.6619 10.4087C2.68074 10.4349 2.6992 10.4614 2.72278 10.495C2.86751 10.711 3.12129 11.1296 3.36601 11.5332C3.63961 11.9845 3.90189 12.417 3.98778 12.5269L4.82778 13.4869C4.93762 13.5885 5.22921 13.8644 5.42929 14.0538C5.52794 14.1471 5.60434 14.2195 5.62573 14.2394C5.72263 14.3298 5.81159 14.4114 5.89692 14.488C5.92335 14.5116 5.93654 14.5234 5.94977 14.5352C5.96295 14.5469 5.97617 14.5585 6.00257 14.5818C6.0623 14.6342 6.11243 14.7655 6.13343 14.9572C6.15124 15.1199 6.14636 15.3014 6.12697 15.4755C6.12058 15.5329 6.11443 15.5741 6.11092 15.5936C6.06952 15.8236 6.2463 16.035 6.47999 16.035C6.74914 16.035 7.027 16.0394 7.4687 16.0492L7.62109 16.0527C8.81767 16.0799 9.26625 16.0799 9.66445 16.0324C10.1196 15.9788 10.6037 15.4129 11.0145 14.7175C11.3638 15.3628 11.8125 15.9267 12.293 16.0006C12.7456 16.0489 13.1843 16.0489 13.6194 16.0029C13.8487 15.9787 14.002 15.7553 13.9421 15.5326C13.8701 15.2648 13.8341 14.9886 13.835 14.7112C13.8269 14.3955 13.8573 14.091 13.9255 13.7939C14.1882 13.2411 14.5685 12.6626 15.0288 12.1507C15.382 11.6426 15.6396 11.131 15.8247 10.5917C15.9639 9.95738 16.0467 9.35718 16.0843 8.75331ZM6.00173 13.5629C5.8066 13.3784 5.46568 13.0559 5.36135 12.9617L4.56098 12.0431C4.5024 11.9637 4.31199 11.6485 4.09083 11.2823C3.82789 10.847 3.52148 10.3397 3.34148 10.0712C3.25803 9.95185 3.15507 9.81729 3.01458 9.64127C2.95998 9.57286 2.92098 9.52451 2.8231 9.40376L2.62364 9.15806L2.5627 9.08268C2.19805 8.63073 1.98938 8.34917 1.89125 8.16423C1.74571 7.93109 1.70751 7.67642 1.772 7.43786C1.88675 6.96624 2.32532 6.65955 2.79813 6.71266C3.20493 6.7958 3.60817 7.01086 3.92582 7.32615C4.17591 7.56188 4.39946 7.81062 4.60121 8.07662C4.66382 8.15507 4.70316 8.20775 4.76506 8.29447C4.87154 8.44383 4.90192 8.48538 4.98468 8.59112C4.99057 8.59864 5.00649 8.6202 5.0275 8.64865C5.0853 8.7269 5.1816 8.85728 5.2134 8.891C5.25251 8.94076 5.25251 8.94076 5.45194 9.02248C5.87989 8.8648 5.88226 8.86127 5.89474 8.66026C5.89964 8.58126 5.886 8.51056 5.85251 8.38404C5.73823 7.54847 5.63694 6.93018 5.49572 6.3071C5.42881 6.01374 5.38637 5.83834 5.34261 5.67326L5.32842 5.62023C5.30491 5.53315 5.27781 5.43641 5.21119 5.1992C5.17447 5.06762 5.14091 4.93715 5.10206 4.77715L5.07178 4.65121C4.95027 4.14194 4.94973 4.13972 4.89245 3.92384C4.77838 3.46146 4.68739 2.98702 4.62148 2.5088C4.51301 1.96473 4.5817 1.42212 4.81261 0.943261C5.04948 0.751471 5.37581 0.706968 5.65725 0.832485C5.96525 1.0708 6.24709 1.46058 6.39372 1.90701C6.65228 2.54135 6.81869 3.18139 6.8977 3.835C6.94107 4.10779 6.99348 4.40513 7.06351 4.78416L7.09468 4.95205C7.36906 6.42413 7.37094 6.43463 7.3752 6.56249C7.39158 7.05396 8.12499 7.04174 8.12499 6.55C8.12499 6.44168 8.12289 6.38355 8.1091 6.05855C8.10373 5.93035 8.10159 5.8757 8.09919 5.80083C8.08853 5.4688 8.09383 5.24294 8.11771 5.12354C8.16344 4.88303 8.32817 4.68634 8.55358 4.6004C8.77196 4.53426 9.02793 4.51757 9.27749 4.55975C9.48174 4.60274 9.67528 4.72842 9.80589 4.90943C9.97712 5.37144 10.0968 5.9478 10.1152 6.53179C10.1303 7.01191 10.8412 7.01804 10.8645 6.53826C10.8888 6.04145 10.9712 5.54928 11.1102 5.07184C11.2247 4.93106 11.3809 4.82946 11.5571 4.7822C11.8134 4.73659 12.1065 4.73659 12.3925 4.78889C12.5401 4.84218 12.7142 4.96762 12.8402 5.13533C12.9891 5.54338 13.1086 6.06533 13.1459 6.59629C13.1434 6.59557 13.1414 6.59498 13.1403 6.59574C13.1348 6.59943 13.1506 6.63502 13.2431 6.84326C13.6242 6.90939 13.7398 6.92947 13.7954 6.88085C13.8197 6.85965 13.8325 6.8254 13.8509 6.77622L13.8509 6.77618C13.8768 6.72343 13.8768 6.72343 13.8841 6.70101C13.8933 6.67368 13.903 6.63718 13.9201 6.57107C13.9574 6.42967 13.9917 6.31956 14.0363 6.21147C14.0655 6.14084 14.0961 6.07949 14.1275 6.02956C14.2369 5.73727 14.4164 5.57915 14.6361 5.5349C14.8559 5.49065 15.0826 5.567 15.2308 5.73519C15.379 5.90338 15.4262 6.13786 15.3546 6.35029L15.335 6.47V8.73C15.3004 9.27318 15.2228 9.83623 15.1034 10.3911C14.9523 10.8232 14.7255 11.2738 14.441 11.6875C13.9603 12.2173 13.5383 12.8593 13.2193 13.5534C13.1122 13.9846 13.0755 14.3521 13.0851 14.7199C13.0844 14.9064 13.0982 15.096 13.1261 15.285C12.8803 15.2923 12.6342 15.283 12.3894 15.2571C12.2678 15.2379 11.8961 14.7708 11.6797 14.3714C11.5577 14.1265 11.2962 13.9647 11.01 13.9647C10.7238 13.9647 10.4623 14.1265 10.3345 14.3825C10.0863 14.8098 9.68885 15.2743 9.57618 15.2876C9.22929 15.329 8.78602 15.329 7.63815 15.3029L7.48544 15.2994C7.24977 15.2942 7.05987 15.2904 6.89251 15.2881C6.89746 15.1501 6.89384 15.0113 6.87897 14.8756C6.83951 14.5153 6.72647 14.2193 6.49742 14.0182C6.47272 13.9964 6.4603 13.9855 6.44792 13.9745C6.43539 13.9634 6.42291 13.9522 6.39779 13.9297C6.31636 13.8567 6.2309 13.7783 6.13733 13.691C6.12194 13.6766 6.07103 13.6285 6.00173 13.5629Z" fill="black"/>
<path d="M12.75 12.8259V9.37411C12.75 9.16749 12.5821 9 12.375 9C12.1679 9 12 9.16749 12 9.37411V12.8259C12 13.0325 12.1679 13.2 12.375 13.2C12.5821 13.2 12.75 13.0325 12.75 12.8259Z" fill="black"/>
<path d="M10.77 12.8246L10.75 9.37107C10.7488 9.16495 10.5799 8.99882 10.3728 9.00001C10.1657 9.00119 9.99881 9.16925 10 9.37537L10.02 12.8289C10.0212 13.035 10.1901 13.2012 10.3972 13.2C10.6043 13.1988 10.7712 13.0307 10.77 12.8246Z" fill="black"/>
<path d="M8.00001 9.37899L8.02001 12.8254C8.02121 13.0335 8.19008 13.2012 8.39719 13.2C8.60429 13.1988 8.7712 13.0291 8.76999 12.821L8.74999 9.3746C8.74879 9.1665 8.57992 8.99879 8.37281 9.00001C8.16571 9.00122 7.9988 9.1709 8.00001 9.37899Z" fill="black"/>
</g>
<defs>
<filter id="filter0_d_0_198" x="0.19057" y="0.02215" width="16.7469" height="17.8489" filterUnits="userSpaceOnUse" color-interpolation-filters="sRGB">
<feFlood flood-opacity="0" result="BackgroundImageFix"/>
<feColorMatrix in="SourceAlpha" type="matrix" values="0 0 0 0 0 0 0 0 0 0 0 0 0 0 0 0 0 0 127 0" result="hardAlpha"/>
<feOffset dy="1"/>
<feGaussianBlur stdDeviation="0.4"/>
<feColorMatrix type="matrix" values="0 0 0 0 0 0 0 0 0 0 0 0 0 0 0 0 0 0 0.5 0"/>
<feBlend mode="normal" in2="BackgroundImageFix" result="effect1_dropShadow_0_198"/>
<feBlend mode="normal" in="SourceGraphic" in2="effect1_dropShadow_0_198" result="shape"/>
</filter>
</defs>
</svg>