<svg width="1920" height="1080" viewBox="0 0 1920 1080" fill="none" xmlns="http://www.w3.org/2000/svg">
<g clip-path="url(#clip0_2_7)">
<rect width="1920" height="1080" fill="white"/>
<path d="M0 1110H1994V0H0V1110Z" fill="url(#paint0_linear_2_7)"/>
<ellipse opacity="0.1" cx="1566.96" cy="203.075" rx="116.332" ry="102.581" fill="url(#paint1_linear_2_7)"/>
<ellipse cx="1573.41" cy="202.416" rx="84.8142" ry="74.7889" fill="url(#paint2_linear_2_7)"/>
<g opacity="0.2">
<ellipse cx="1353.71" cy="8.82676" rx="5.14025" ry="4.53266" fill="#00C8F9"/>
<ellipse opacity="0.6" cx="1291.21" cy="795.243" rx="4.46391" ry="3.93626" fill="#00C8F9"/>
<ellipse opacity="0.6" cx="1247.11" cy="592.466" rx="5.00498" ry="4.41338" fill="#00C8F9"/>
<ellipse opacity="0.6" cx="603.363" cy="4.41338" rx="5.00498" ry="4.41338" fill="#00C8F9"/>
<ellipse opacity="0.6" cx="300.359" cy="88.3868" rx="4.46391" ry="3.93626" fill="#00C8F9"/>
<ellipse opacity="0.6" cx="1184.21" cy="279.236" rx="2.43486" ry="2.14705" fill="#00C8F9"/>
<ellipse opacity="0.6" cx="318.891" cy="679.422" rx="2.43486" ry="2.14705" fill="#00C8F9"/>
<ellipse opacity="0.6" cx="1775.07" cy="279.236" rx="2.43486" ry="2.14705" fill="#00C8F9"/>
<ellipse opacity="0.6" cx="1850.69" cy="211.604" rx="2.43486" ry="2.14705" fill="#00C8F9"/>
<ellipse opacity="0.6" cx="643.809" cy="369.412" rx="5.00498" ry="4.41338" fill="#00C8F9"/>
<ellipse cx="539.651" cy="251.205" rx="2.43486" ry="2.14705" fill="#3CC566"/>
</g>
<g opacity="0.5">
<ellipse opacity="0.6" cx="1142.68" cy="667.732" rx="5.00498" ry="4.41338" fill="white"/>
<ellipse opacity="0.6" cx="1699.05" cy="49.2628" rx="5.14025" ry="4.53266" fill="white"/>
<ellipse cx="1721.91" cy="629.562" rx="5.00498" ry="4.41338" fill="white"/>
<ellipse opacity="0.6" cx="1436.76" cy="771.864" rx="3.51702" ry="3.10129" fill="white"/>
<ellipse cx="1068.02" cy="489.05" rx="5.00498" ry="4.41338" fill="white"/>
<ellipse opacity="0.6" cx="1130.51" cy="383.606" rx="5.00498" ry="4.41338" fill="white"/>
<ellipse cx="936.263" cy="75.9817" rx="2.57013" ry="2.26633" fill="white"/>
<ellipse cx="357.172" cy="66.2007" rx="2.43486" ry="2.14705" fill="white"/>
<ellipse opacity="0.6" cx="1824.44" cy="429.41" rx="4.46391" ry="3.93626" fill="white"/>
<ellipse cx="696.835" cy="1027.01" rx="5.00498" ry="4.41338" fill="white"/>
<ellipse opacity="0.6" cx="443.61" cy="949.592" rx="2.43486" ry="2.14705" fill="white"/>
<ellipse opacity="0.6" cx="578.203" cy="476.526" rx="4.46391" ry="3.93626" fill="white"/>
<ellipse cx="746.614" cy="62.503" rx="2.43486" ry="2.14705" fill="white"/>
</g>
<path opacity="0.5" d="M1272.81 24.4525C1273.22 24.4525 1281.34 24.9296 1283.23 26.361C1284.99 27.7924 1285.53 39.124 1285.53 39.6011C1285.53 39.124 1285.94 28.1502 1287.83 26.4803C1289.05 25.4067 1297.43 24.4525 1298.24 24.4525C1297.7 24.4525 1289.32 24.4525 1287.69 23.0211C1286.34 21.7091 1285.66 12.763 1285.53 12.1666C1285.39 13.0016 1284.99 21.8283 1283.64 23.0211C1282.28 24.2139 1273.49 24.3332 1272.81 24.4525Z" fill="white"/>
<path opacity="0.35" d="M1837.57 69.1827C1838.38 69.1827 1853.26 70.0177 1856.64 72.6418C1859.88 75.266 1860.83 96.1401 1860.7 96.8558C1860.7 96.0208 1861.37 75.8624 1864.75 72.7611C1867.05 70.7333 1882.48 69.0634 1883.69 69.0634C1882.61 69.0634 1867.32 69.0634 1864.48 66.4392C1861.91 64.0536 1860.7 47.5929 1860.56 46.5194C1860.29 47.9508 1859.61 64.2922 1857.18 66.5585C1854.88 68.7056 1838.92 68.9441 1837.57 69.1827Z" fill="white"/>
<path opacity="0.5" d="M519.631 976.073C520.714 975.953 540.598 977.265 545.062 980.724C549.391 984.184 550.608 1012.1 550.473 1013.05C550.473 1011.86 551.42 984.899 556.019 980.844C558.995 978.22 579.691 975.953 581.45 975.953C579.962 975.834 559.536 975.953 555.748 972.375C552.367 969.154 550.608 947.207 550.608 945.775C550.338 947.684 549.391 969.512 546.009 972.494C542.898 975.476 521.66 975.834 519.631 976.073Z" fill="white"/>
<path opacity="0.35" d="M328.089 508.135C328.63 508.135 338.235 508.731 340.399 510.401C342.563 512.071 343.104 525.669 343.104 526.146C343.104 525.55 343.51 512.429 345.81 510.521C347.298 509.209 357.308 508.135 358.119 508.135C357.443 508.135 347.433 508.135 345.674 506.346C344.051 504.795 343.24 494.179 343.104 493.344C342.969 494.298 342.563 504.914 340.94 506.346C339.317 507.896 329.036 508.016 328.089 508.135Z" fill="white"/>
<path opacity="0.5" d="M1307.85 721.886C1308.39 721.886 1317.99 722.482 1320.16 724.152C1322.32 725.822 1322.86 739.42 1322.86 739.897C1322.86 739.301 1323.27 726.18 1325.57 724.271C1327.06 722.959 1337.07 721.886 1337.88 721.886C1337.2 721.886 1327.19 721.886 1325.43 720.096C1323.81 718.546 1323 707.93 1322.86 707.095C1322.73 708.049 1322.32 718.665 1320.7 720.096C1319.21 721.528 1308.8 721.766 1307.85 721.886Z" fill="white"/>
<ellipse cx="337.423" cy="887.089" rx="61.5478" ry="54.2726" fill="#13622C"/>
<g opacity="0.3">
<path d="M334.176 832.936C336.206 832.816 338.099 832.816 340.128 832.936C340.805 833.532 341.481 834.129 342.157 834.725C343.781 836.276 345.269 838.065 347.298 839.377C349.191 840.57 351.491 841.285 353.52 842.24C357.172 844.029 360.419 846.534 363.936 848.442C366.912 849.993 370.158 850.947 373.269 852.14C379.627 854.645 385.579 857.865 391.396 861.205C393.966 865.38 395.86 869.793 397.212 874.445C397.077 874.445 397.077 874.326 396.942 874.326C394.507 873.133 391.531 872.895 388.961 871.821C385.85 870.509 383.55 868.004 380.574 866.692C378.004 865.619 374.757 865.38 372.593 863.71C369.347 861.205 369.347 856.553 365.83 854.406C363.395 852.975 360.148 853.333 357.443 852.259C354.061 850.947 352.032 847.488 348.38 846.772C345.81 846.295 343.104 847.249 340.534 846.772C335.394 845.818 333.771 839.735 329.172 837.588C326.196 836.276 322.679 836.753 319.432 836.156C318.891 836.037 318.35 835.918 317.809 835.799C323.084 834.129 328.495 833.174 334.176 832.936Z" fill="#073415"/>
<path d="M286.291 856.911C289.537 852.617 293.46 848.8 297.924 845.46C299.006 845.818 300.224 845.937 301.441 845.937C305.77 846.176 310.234 845.937 314.427 846.772C318.62 847.607 322.814 849.754 324.572 853.333C325.925 856.196 325.654 859.655 327.954 861.802C330.795 864.426 335.8 863.591 339.858 864.784C342.698 865.619 344.998 867.527 347.298 869.197C352.438 873.014 358.255 876.235 364.342 878.74C366.912 879.813 369.482 880.648 371.646 882.199C374.081 883.869 375.975 886.254 378.816 887.328C382.197 888.521 386.12 887.566 389.367 888.998C391.937 890.071 393.56 892.457 395.454 894.365C396.265 895.081 397.077 895.797 397.889 896.393C396.942 901.164 395.318 905.697 393.154 909.872C393.019 909.872 392.884 909.753 392.884 909.753C390.719 908.44 388.961 906.771 386.796 905.697C383.415 903.908 379.221 903.669 376.11 901.641C373.675 900.091 372.052 897.824 369.482 896.393C365.83 894.365 360.96 894.723 357.037 893.173C352.032 891.025 349.191 886.016 344.051 884.226C341.075 883.153 337.694 883.392 334.447 883.034C326.196 881.841 319.973 875.877 312.128 873.372C307.393 871.821 301.712 871.463 298.195 868.243C296.436 866.692 295.354 864.545 293.866 862.756C291.972 860.013 289.267 858.343 286.291 856.911Z" fill="#063A16"/>
<path d="M277.093 876.593C277.498 877.189 277.904 877.905 278.445 878.382C280.745 880.767 284.397 881.841 287.779 882.676C291.025 883.511 294.407 884.346 297.654 885.181C300.494 885.896 303.335 886.731 305.635 888.401C308.34 890.31 309.828 893.411 312.939 894.723C317.538 896.751 323.49 894.127 327.954 896.393C331.201 898.063 332.418 901.761 335.664 903.55C338.37 905.101 342.022 904.862 344.998 905.936C348.65 907.248 351.085 910.468 354.873 911.542C359.201 912.854 363.936 910.945 368.535 911.542C375.163 912.496 379.086 918.221 384.632 921.561L384.767 921.681C381.25 925.378 377.192 928.599 372.728 931.342C370.699 930.149 368.535 929.195 366.1 928.837C363.936 928.48 361.636 928.48 359.472 928.122C349.327 926.571 342.022 917.267 331.742 916.79C329.172 916.671 326.466 917.148 323.896 916.551C320.92 915.836 318.62 913.808 316.321 911.9C308.881 905.697 300.359 900.687 291.025 896.989C285.75 894.842 279.933 893.053 276.146 889.356C275.74 885.061 276.146 880.767 277.093 876.593Z" fill="#0B3D1A"/>
<path d="M285.074 915.597C285.615 916.074 286.156 916.551 286.697 917.148C289.267 919.891 291.296 923.589 295.219 924.424C297.113 924.901 299.142 924.543 301.035 924.782C304.282 925.14 306.987 927.048 310.098 928.241C313.48 929.672 317.403 930.149 320.514 931.939C324.708 934.205 327.684 938.38 331.471 941.004C311.992 939.453 294.948 929.672 285.074 915.597Z" fill="url(#paint3_linear_2_7)"/>
</g>
<path opacity="0.2" d="M1124.15 271.244L933.557 94.5895L1118.07 276.492L1124.15 271.244Z" fill="url(#paint4_linear_2_7)"/>
<ellipse opacity="0.1" cx="393.56" cy="349.134" rx="116.332" ry="102.581" fill="url(#paint5_linear_2_7)"/>
<path opacity="0.1" d="M1403.21 712.224L1270.92 589.484L1399.02 715.922L1403.21 712.224Z" fill="url(#paint6_linear_2_7)"/>
<path opacity="0.1" d="M780.026 1039.65L666.264 934.086L776.374 1042.75L780.026 1039.65Z" fill="url(#paint7_linear_2_7)"/>
<path opacity="0.2" d="M1870.57 599.862L1756.67 494.418L1866.92 603.082L1870.57 599.862Z" fill="url(#paint8_linear_2_7)"/>
<g opacity="0.5">
<ellipse cx="1120.5" cy="273.391" rx="4.32863" ry="3.81698" fill="white"/>
<ellipse cx="1400.78" cy="713.655" rx="2.97594" ry="2.62417" fill="white"/>
<ellipse cx="777.862" cy="1040.84" rx="2.57013" ry="2.26633" fill="white"/>
<ellipse cx="1868.41" cy="601.174" rx="2.57013" ry="2.26633" fill="white"/>
</g>
<path opacity="0.2" d="M322.814 928.479C356.767 926.929 382.874 901.284 380.98 871.344C380.304 859.058 374.893 847.965 366.506 839.138C384.903 847.846 397.753 864.426 398.971 884.107C400.729 914.047 374.757 939.573 340.805 941.242C320.785 942.197 302.523 934.563 290.484 922.038C300.088 926.69 311.181 928.957 322.814 928.479Z" fill="#073415"/>
<path d="M1284.04 967.007C1287.96 961.52 1290.94 950.785 1292.29 945.298C1292.83 943.151 1294.32 941.243 1296.49 939.931C1320.97 925.378 1351.81 898.659 1360.87 890.548C1362.5 889.117 1364.53 888.282 1366.69 888.043C1370.07 887.686 1376.7 886.612 1389.01 883.869C1410.65 878.978 1424.32 860.37 1507.51 813.255C1590.56 766.258 1668.21 740.016 1682.41 730.116C1696.61 720.216 1697.43 711.031 1697.43 711.031C1695.94 707.453 1723.53 694.928 1759.24 683.12C1794.96 671.311 1824.99 664.631 1826.61 668.21V668.21C1826.88 668.21 1827.01 668.09 1827.01 668.09C1827.01 668.09 1837.57 672.504 1866.11 668.09C1894.65 663.677 1918.19 662.126 1918.19 662.126V1081.28H1191.65C1226.15 1020.92 1278.63 974.641 1284.04 967.007Z" fill="#E5E5E5"/>
<path d="M1284.04 967.007C1287.96 961.52 1290.94 950.785 1292.29 945.298C1292.83 943.151 1294.32 941.243 1296.49 939.931C1320.97 925.378 1351.81 898.659 1360.87 890.548C1362.5 889.117 1364.53 888.282 1366.69 888.043C1370.07 887.686 1376.7 886.612 1389.01 883.869C1410.65 878.978 1424.32 860.37 1507.51 813.255C1590.56 766.258 1668.21 740.016 1682.41 730.116C1696.61 720.216 1697.43 711.031 1697.43 711.031C1695.94 707.453 1723.53 694.928 1759.24 683.12C1794.96 671.311 1824.99 664.631 1826.61 668.21C1826.88 668.21 1827.01 668.09 1827.01 668.09C1827.01 668.09 1837.57 672.504 1866.11 668.09C1894.65 663.677 1918.19 662.126 1918.19 662.126V1081.28H1191.65C1226.15 1020.92 1278.63 974.641 1284.04 967.007Z" fill="url(#paint9_linear_2_7)"/>
<g opacity="0.15">
<path d="M1284.04 967.007C1287.96 961.52 1290.94 950.785 1292.29 945.298C1292.83 943.151 1294.32 941.243 1296.49 939.93C1320.97 925.378 1351.81 898.659 1360.87 890.548C1362.5 889.117 1364.53 888.282 1366.69 888.043C1370.07 887.686 1376.7 886.612 1389.01 883.869C1410.65 878.978 1424.32 860.37 1507.51 813.255C1527.26 802.042 1546.74 792.023 1565 783.196C1541.73 800.014 1520.36 819.099 1499.66 838.303C1428.78 903.669 1358.58 977.146 1342.34 1066.49C1341.4 1071.38 1340.58 1076.39 1339.77 1081.52H1191.52C1226.15 1020.92 1278.63 974.641 1284.04 967.007Z" fill="url(#paint10_linear_2_7)"/>
</g>
<g opacity="0.4">
<path d="M1675.65 1021.64C1713.39 965.814 1688.23 883.272 1742.34 839.019C1764.52 820.888 1796.04 813.612 1818.49 795.482C1840.54 777.59 1851.23 750.632 1852.31 724.152C1852.99 705.902 1849.47 687.771 1843.92 670.237C1849.6 670.237 1856.91 669.641 1866.11 668.329C1894.65 663.915 1918.19 662.365 1918.19 662.365V1081.52H1609.5C1633.04 1062.67 1659.55 1045.61 1675.65 1021.64Z" fill="url(#paint11_linear_2_7)"/>
</g>
<path opacity="0.3" d="M740.527 759.817C785.166 683.239 1061.66 722.363 1453.94 845.341C1416.34 869.316 1404.84 880.29 1388.88 883.869C1376.43 886.731 1369.94 887.686 1366.56 888.043C1364.39 888.282 1362.23 889.117 1360.74 890.548C1352.08 898.182 1323.54 923.112 1299.6 937.903C1248.33 938.141 1214.65 948.161 1202.47 968.916C1187.46 994.68 1206.94 1034.52 1254.82 1084.14H1024.86C815.737 937.068 706.168 818.98 740.527 759.817Z" fill="url(#paint12_linear_2_7)"/>
<g opacity="0.15">
<path d="M1082.62 1085.33L1084.65 1083.19C898.387 952.097 811.408 853.213 839.545 804.786C848.472 789.518 868.763 779.379 900.01 774.727C930.716 770.075 971.974 770.791 1022.7 776.635C1122.12 788.086 1259.42 820.054 1419.85 869.078L1420.93 866.454C1260.37 817.429 1122.8 785.462 1023.11 773.892C918.001 761.725 855.236 771.745 836.704 803.593C821.824 829.119 836.704 867.169 880.667 916.671C923.006 964.025 990.912 1020.8 1082.62 1085.33Z" fill="url(#paint13_linear_2_7)"/>
</g>
<g opacity="0.15">
<path d="M1114.82 1084.98L1116.17 1083.54C945.731 963.667 866.193 873.133 892.029 828.642C923.682 774.25 1109.14 793.215 1400.91 880.409L1401.59 878.62C1260.64 836.514 1140.25 809.318 1053.14 800.014C961.423 790.233 906.503 799.537 890 827.807C876.473 850.947 890 885.658 930.175 930.746C968.998 974.164 1030.95 1026.05 1114.82 1084.98Z" fill="url(#paint14_linear_2_7)"/>
</g>
<g opacity="0.15">
<path d="M1209.24 1082.11L1210.73 1080.8C1121.99 1008.99 1084.25 955.318 1101.43 925.855C1119.69 894.485 1198.28 891.741 1328.82 917.983L1329.22 916.194C1237.51 897.824 1123.21 884.346 1099.53 925.02C1077.21 963.309 1146.88 1031.66 1209.24 1082.11Z" fill="url(#paint15_linear_2_7)"/>
</g>
<path opacity="0.59" d="M1697.43 711.15C1698.91 714.729 1729.08 708.049 1764.79 696.24C1800.5 684.432 1828.1 671.907 1826.61 668.329C1825.12 664.75 1794.96 671.43 1759.24 683.239C1723.67 695.048 1695.94 707.572 1697.43 711.15Z" fill="url(#paint16_linear_2_7)"/>
<path d="M1823.23 672.146C1814.98 677.633 1792.25 687.175 1764.79 696.24C1737.33 705.306 1713.12 711.389 1702.7 711.985C1710.95 706.498 1733.68 696.956 1761.14 687.891C1788.73 678.825 1812.95 672.742 1823.23 672.146Z" fill="url(#paint17_linear_2_7)"/>
<path opacity="0.59" d="M1723.94 906.174C1734.76 922.754 1782.1 916.551 1829.58 892.457C1877.06 868.243 1906.69 835.321 1895.87 818.741C1885.05 802.161 1837.7 808.364 1790.22 832.459C1742.74 856.553 1713.12 889.594 1723.94 906.174Z" fill="url(#paint18_linear_2_7)"/>
<path d="M1798.2 839.019C1838.24 818.622 1878.15 811.108 1896.14 819.099C1906.15 835.799 1876.52 868.481 1829.58 892.338C1789.54 912.735 1749.64 920.249 1731.65 912.257C1721.64 895.558 1751.13 862.875 1798.2 839.019Z" fill="url(#paint19_linear_2_7)"/>
<path opacity="0.59" d="M1827.42 1025.34C1859.88 1008.87 1892.21 998.616 1918.05 995.396V1081.4H1751.13C1766.95 1062.79 1793.87 1042.39 1827.42 1025.34Z" fill="url(#paint20_linear_2_7)"/>
<path d="M1838.11 1034.28C1866.24 1019.97 1894.24 1010.43 1918.05 1006.01V1081.52H1770.07C1786.3 1065.41 1809.84 1048.71 1838.11 1034.28Z" fill="url(#paint21_linear_2_7)"/>
<path opacity="0.59" d="M1447.85 936.948C1453.13 944.702 1475.45 941.362 1497.63 929.434C1519.82 917.506 1533.48 901.641 1528.07 893.888C1522.66 886.135 1500.47 889.475 1478.29 901.403C1456.24 913.331 1442.58 929.195 1447.85 936.948Z" fill="url(#paint22_linear_2_7)"/>
<path d="M1482.21 904.504C1500.88 894.485 1519.68 890.548 1528.34 894.127C1533.21 901.999 1519.68 917.625 1497.77 929.434C1479.1 939.453 1460.3 943.39 1451.64 939.811C1446.64 931.939 1460.3 916.313 1482.21 904.504Z" fill="url(#paint23_linear_2_7)"/>
<path opacity="0.59" d="M1611.39 1029.99C1614.51 1034.04 1626.41 1031.66 1637.91 1024.86C1649.4 1017.94 1656.3 1009.11 1653.19 1005.06C1650.08 1001 1638.18 1003.39 1626.68 1010.19C1615.18 1017.11 1608.28 1025.93 1611.39 1029.99Z" fill="url(#paint24_linear_2_7)"/>
<path d="M1628.84 1011.74C1638.58 1005.89 1648.46 1003.39 1653.19 1005.18C1656.03 1009.23 1649.27 1017.94 1637.91 1024.86C1628.17 1030.7 1618.29 1033.21 1613.56 1031.42C1610.58 1027.24 1617.35 1018.54 1628.84 1011.74Z" fill="url(#paint25_linear_2_7)"/>
<path opacity="0.59" d="M1637.91 809.199C1641.15 815.044 1657.39 813.851 1674.02 806.456C1690.66 799.179 1701.48 788.563 1698.24 782.719C1694.99 776.874 1678.76 778.067 1662.12 785.462C1645.48 792.858 1634.66 803.474 1637.91 809.199Z" fill="url(#paint26_linear_2_7)"/>
<path d="M1664.69 787.848C1678.76 781.645 1692.42 779.856 1698.37 782.957C1701.35 788.802 1690.53 799.299 1674.02 806.575C1659.96 812.777 1646.29 814.567 1640.34 811.465C1637.37 805.621 1648.19 795.124 1664.69 787.848Z" fill="url(#paint27_linear_2_7)"/>
<path opacity="0.59" d="M1452.32 1080.68C1451.37 1081.28 1450.29 1081.87 1449.34 1082.47H1376.16C1379.41 1068.51 1397.53 1049.31 1423.23 1033.92C1456.65 1014.12 1490.19 1008.52 1498.17 1021.4C1506.29 1034.28 1485.73 1060.88 1452.32 1080.68Z" fill="url(#paint28_linear_2_7)"/>
<path d="M1452.32 1080.68C1451.78 1081.04 1451.23 1081.28 1450.83 1081.52H1384.14C1390.36 1068.4 1406.87 1052.17 1429.05 1039.05C1457.19 1022.35 1485.46 1015.67 1498.44 1021.76C1505.88 1034.88 1485.46 1061 1452.32 1080.68Z" fill="url(#paint29_linear_2_7)"/>
<path opacity="0.1" d="M1224.12 867.05C1249.41 867.05 1269.97 848.919 1269.97 826.614C1269.97 817.906 1266.86 809.915 1261.59 803.235C1274.57 810.392 1283.36 823.155 1283.36 837.707C1283.36 860.012 1262.8 878.143 1237.51 878.143C1221.95 878.143 1208.29 871.344 1200.04 860.967C1206.94 864.903 1215.32 867.05 1224.12 867.05Z" fill="url(#paint30_linear_2_7)"/>
<ellipse cx="1237.24" cy="160.671" rx="3.92283" ry="3.45913" fill="url(#paint31_linear_2_7)"/>
<g opacity="0.1">
<path d="M1186.51 83.6156C1186.78 83.6156 1208.29 86.7169 1227.63 107.83C1228.31 108.665 1228.17 109.738 1227.23 110.334C1223.98 112.362 1220.33 114.509 1216.41 116.537C1213.57 114.032 1210.59 111.527 1208.43 108.545C1206.13 105.444 1204.5 101.985 1202.47 98.7643C1198.55 92.6809 1192.73 87.6712 1185.97 84.212C1186.24 83.8542 1186.51 83.6156 1186.51 83.6156Z" fill="url(#paint32_linear_2_7)"/>
</g>
<path opacity="0.1" d="M971.297 956.272C989.153 956.272 1003.63 943.509 1003.63 927.764C1003.63 923.47 1002.54 919.414 1000.65 915.717C1004.98 920.607 1007.69 926.69 1007.69 933.37C1007.69 949.115 993.211 961.878 975.356 961.878C962.37 961.878 951.142 955.198 946.002 945.417C951.819 952.097 961.017 956.272 971.297 956.272Z" fill="url(#paint33_linear_2_7)"/>
<g opacity="0.2">
<path d="M466.876 68.467C468.499 68.3477 470.123 67.9899 471.746 68.467C473.369 68.9441 474.722 70.2562 475.939 71.3298C476.616 71.9262 476.21 72.8804 475.263 72.9997C472.963 73.119 470.799 73.2382 468.499 73.3575C468.094 73.3575 467.688 73.2382 467.553 72.8804C466.606 71.449 465.794 69.8984 465.388 68.5863C465.929 68.467 466.47 68.467 466.876 68.467Z" fill="url(#paint34_linear_2_7)"/>
<path d="M481.891 70.0177C480.944 70.0177 479.997 70.0177 479.456 69.4213C483.65 67.1549 488.384 64.8886 492.983 66.0814C494.877 66.5585 496.5 67.5128 498.394 67.9899C500.423 68.3477 502.452 67.9899 504.211 67.0357C504.481 66.9164 504.616 66.9164 504.887 66.9164C510.298 67.6321 516.25 67.8706 518.414 69.6598C518.685 69.8984 518.955 70.137 519.226 70.3755C506.781 69.5405 494.336 69.4213 481.891 70.0177Z" fill="url(#paint35_linear_2_7)"/>
<path d="M483.109 79.083C481.891 79.083 481.621 77.5323 482.838 77.2938C484.191 76.9359 485.679 76.5781 487.031 76.4588C489.331 76.2202 491.766 76.5781 494.065 76.8166C497.177 77.1745 500.288 77.6516 503.399 78.0094C496.365 78.248 489.196 79.083 483.109 79.083Z" fill="url(#paint36_linear_2_7)"/>
<path d="M492.307 61.0716C491.089 61.0716 490.007 61.1909 488.925 61.668C487.978 62.1451 487.031 62.8608 486.085 63.0994C485.273 63.3379 484.326 63.2186 483.379 63.2186C478.104 62.8608 472.828 62.8608 467.553 63.2186C467.011 63.2186 466.606 63.3379 466.065 63.3379C467.417 61.3102 470.528 59.8788 476.075 59.1631H476.21C477.021 59.1631 487.167 58.686 492.307 61.0716Z" fill="url(#paint37_linear_2_7)"/>
</g>
<g opacity="0.2">
<path d="M1059.49 78.248C1059.36 78.4865 1059.09 78.8444 1058.95 79.0829C1058.68 79.4408 1058.28 79.6794 1057.87 79.5601C1056.25 79.3215 1054.76 78.8444 1053.27 78.1287C1052.19 77.6516 1051.24 77.1745 1050.3 76.8166C1049.75 76.5781 1049.48 76.1009 1049.62 75.6238C1050.02 74.6696 1050.43 73.8346 1050.97 72.9996C1054.08 68.1091 1059.49 64.5307 1065.31 62.503C1068.42 61.4294 1071.67 60.7138 1074.37 59.1631C1080.19 55.8233 1083.03 48.905 1089.52 47.1158C1090.88 46.7579 1092.23 46.6387 1093.58 46.4001C1094.12 46.2808 1094.53 46.6387 1094.66 46.9965C1095.34 48.6664 1095.61 50.3363 1095.75 52.1256C1095.75 52.4834 1095.48 52.8412 1095.07 52.9605C1093.31 53.5569 1091.69 54.3919 1090.06 55.2268C1078.57 61.4294 1066.26 67.8706 1059.49 78.248Z" fill="url(#paint38_linear_2_7)"/>
<path d="M1020.4 72.0454C1018.1 67.8706 1026.22 59.521 1037.17 51.5292C1037.85 51.052 1038.93 51.4099 1038.93 52.2448C1039.07 54.5112 1037.17 56.8968 1035.69 59.0438C1032.71 63.6958 1032.17 69.1827 1031.76 74.431C1031.76 74.6696 1031.76 74.9081 1031.76 75.1467C1031.76 75.6238 1031.36 75.9817 1030.82 75.9817C1026.22 76.3395 1022.7 76.2202 1020.4 72.0454Z" fill="url(#paint39_linear_2_7)"/>
<path d="M1085.74 38.4083L1069.1 42.2253C1067.88 42.4639 1067.2 41.1518 1068.29 40.5554C1071.67 38.5276 1074.64 36.142 1077.35 33.5178C1077.62 33.2793 1078.03 33.16 1078.43 33.2793C1081 33.9949 1083.57 35.1878 1086.01 36.8577C1086.82 37.2155 1086.55 38.1698 1085.74 38.4083Z" fill="url(#paint40_linear_2_7)"/>
</g>
<ellipse opacity="0.1" cx="393.56" cy="349.134" rx="142.574" ry="125.722" fill="url(#paint41_linear_2_7)"/>
<ellipse opacity="0.1" cx="393.56" cy="349.134" rx="116.332" ry="102.581" fill="url(#paint42_linear_2_7)"/>
<ellipse cx="393.56" cy="349.134" rx="84.8142" ry="74.7889" fill="url(#paint43_linear_2_7)"/>
<path opacity="0.2" d="M375.028 413.426C421.831 413.426 459.842 379.908 459.842 338.637C459.842 315.735 448.074 295.219 429.677 281.502C458.489 293.43 478.374 319.314 478.374 349.134C478.374 390.405 440.363 423.923 393.56 423.923C372.728 423.923 353.655 417.243 338.911 406.269C349.868 410.921 362.042 413.426 375.028 413.426Z" fill="url(#paint44_linear_2_7)"/>
<g opacity="0.2">
<path d="M418.72 375.734C420.884 374.422 423.049 372.394 422.778 370.008C422.508 367.98 420.614 365.356 422.508 364.163C426.701 363.448 430.759 365.714 433.6 368.457C436.441 371.201 438.605 374.541 441.716 376.926C445.774 380.147 451.455 381.698 456.866 381.221C461.601 380.743 466.2 378.835 470.799 379.789C462.818 395.415 448.885 408.297 431.436 415.931C429.001 415.931 426.701 415.812 424.266 415.812C421.696 415.812 418.855 415.693 417.097 414.142C414.121 411.637 415.474 407.104 417.503 403.884C419.532 400.663 421.967 396.966 420.208 393.506C418.72 390.405 414.256 389.212 412.362 386.35C411.145 384.441 411.145 381.817 412.498 380.028C414.121 378.119 416.556 377.046 418.72 375.734Z" fill="url(#paint45_linear_2_7)"/>
</g>
<g opacity="0.2">
<path d="M399.647 378.716C400.594 376.569 398.565 374.064 395.995 373.348C393.56 372.632 390.719 372.99 388.149 373.229C383.685 373.587 379.086 373.467 374.757 372.155C370.429 370.962 366.506 368.457 364.342 364.998C362.718 362.613 362.042 359.75 360.013 357.722C357.443 354.979 353.114 353.786 349.868 351.877C348.109 350.804 345.81 352.593 346.892 354.263V354.263C348.109 356.172 349.733 357.842 350.679 359.75C352.438 363.448 351.491 367.861 354.196 371.082C356.226 373.587 360.013 374.66 362.989 376.211C367.182 378.477 370.429 382.055 375.028 383.606C379.357 385.037 384.091 384.322 388.69 383.725C392.748 383.129 397.212 382.294 399.377 379.312" fill="url(#paint46_linear_2_7)"/>
</g>
<g opacity="0.2">
<path d="M394.507 331.123C396.265 331.003 398.159 330.765 399.782 331.242C401.541 331.6 403.164 332.554 403.84 334.105C405.193 337.206 401.541 340.427 401.676 343.766C401.811 346.391 404.246 349.015 402.894 351.281C401.947 352.832 399.647 353.428 397.753 353.19C395.724 352.951 393.966 352.235 391.937 351.878C387.202 351.043 382.333 352.593 377.598 352.474C372.052 352.355 366.777 349.73 363.53 345.794C362.583 344.601 361.772 343.17 362.448 341.739C362.989 340.427 364.747 339.711 366.235 339.234C368.67 338.399 371.105 337.564 373.54 336.729C374.487 336.371 375.434 336.013 376.245 335.417C378.41 333.27 376.922 328.976 379.898 327.783C381.656 327.067 383.685 328.26 385.444 329.095C388.014 330.407 391.531 331.481 394.507 331.123" fill="url(#paint47_linear_2_7)"/>
</g>
<g opacity="0.2">
<path d="M462.142 305.239C462.683 305.955 462.818 306.789 462.412 307.505C461.06 310.01 459.707 312.396 456.731 312.754C455.514 312.873 454.296 312.754 453.214 312.873C450.509 313.35 448.75 315.736 447.803 318.121C447.803 318.24 447.668 318.479 447.668 318.598C446.992 320.626 444.016 320.745 442.798 318.956C440.904 315.855 437.793 313.35 434.006 312.157C429.542 310.726 424.401 310.845 420.479 308.459C415.744 305.597 414.256 299.752 409.792 296.651C406.14 294.146 401 293.669 397.618 290.806C393.019 286.75 394.372 279.594 398.835 275.419C399.377 274.942 400.188 274.584 401 274.703C426.16 276.612 448.074 288.182 462.142 305.239Z" fill="url(#paint48_linear_2_7)"/>
</g>
<g opacity="0.3">
<path d="M456.731 312.754C456.055 312.873 455.378 312.873 454.567 312.754C449.426 300.468 440.769 289.732 429.812 281.502C431.841 282.337 433.87 283.291 435.764 284.245V284.245C438.334 285.558 440.769 286.989 443.204 288.54C443.204 288.54 443.204 288.54 443.339 288.54C445.774 290.09 448.074 291.76 450.238 293.43V293.43C454.702 296.889 458.625 300.825 462.142 305.12C462.683 305.835 462.818 306.67 462.412 307.386C461.06 310.01 459.572 312.396 456.731 312.754Z" fill="url(#paint49_linear_2_7)"/>
</g>
<g opacity="0.3">
<path d="M446.045 379.551C449.426 380.982 453.214 381.698 457.002 381.34C461.736 380.863 466.335 378.954 470.934 379.908C466.876 387.781 461.465 394.818 454.837 401.021V401.021C454.026 401.737 453.214 402.452 452.402 403.168C452.402 403.168 452.402 403.168 452.267 403.287C446.18 408.416 439.281 412.711 431.706 416.05C429.271 416.05 426.972 415.931 424.537 415.931C421.967 415.931 419.126 415.812 417.367 414.261C414.392 411.756 415.744 407.224 417.773 404.003C418.044 403.645 418.179 403.287 418.45 402.93C429.407 397.085 438.875 389.093 446.045 379.551Z" fill="url(#paint50_linear_2_7)"/>
</g>
<g opacity="0.2">
<path d="M317.538 323.012C319.973 324.443 323.22 325.039 326.331 325.159C328.495 325.278 329.442 327.425 328.225 328.856C325.249 332.435 323.22 336.61 322.543 341.023C322.002 344.601 322.273 348.18 321.461 351.639C320.514 355.575 318.079 359.273 315.239 362.493C315.103 362.732 314.833 362.971 314.562 363.209C313.074 364.76 310.234 364.163 309.828 362.136C309.016 357.961 308.475 353.547 308.475 349.134C308.475 340.307 310.234 331.958 313.345 324.085C314.157 322.654 316.05 322.177 317.538 323.012Z" fill="url(#paint51_linear_2_7)"/>
</g>
<g opacity="0.2">
<path d="M340.805 373.706C342.157 374.66 344.863 375.972 347.298 375.614C347.703 375.614 348.109 375.495 348.38 375.734C348.65 375.972 348.786 376.33 348.921 376.569C349.597 379.193 350.274 382.055 352.708 383.606C353.655 384.203 354.873 384.56 355.684 385.157C356.496 385.753 357.308 386.827 356.902 387.9C356.496 388.735 355.549 389.212 354.467 389.212C353.52 389.212 352.573 388.854 351.626 388.616C348.786 387.662 345.945 386.588 343.104 385.634C341.075 384.918 338.911 384.083 337.152 382.89C334.582 380.982 333.094 378 333.365 375.137C333.365 374.66 333.5 374.302 333.771 373.944C334.177 373.467 334.718 373.348 335.394 373.229C337.288 372.632 339.317 372.99 340.805 373.706" fill="url(#paint52_linear_2_7)"/>
</g>
<g opacity="0.2">
<path d="M348.38 285.796C348.65 286.75 348.65 287.824 348.921 288.897C349.462 290.925 350.815 292.714 352.708 294.026C354.061 294.861 355.549 295.458 356.767 296.412C357.984 297.366 358.525 299.156 357.578 300.229C357.172 300.587 356.767 300.945 356.226 301.183C354.602 301.899 352.708 302.018 351.085 301.66C349.462 301.303 347.974 300.587 346.486 299.99C343.51 298.678 340.399 297.724 337.558 296.412C336.747 296.054 335.935 295.577 335.259 295.1C339.046 291.641 343.51 288.54 348.38 285.796Z" fill="url(#paint53_linear_2_7)"/>
</g>
<g opacity="0.15">
<path d="M237.323 309.771C240.976 299.275 275.199 298.678 324.031 306.67C323.761 307.028 323.49 307.386 323.22 307.744C311.722 305.955 300.9 304.523 291.025 303.569C282.503 302.853 274.928 302.376 268.3 302.376C250.85 302.376 240.435 305 238.676 310.01C236.241 316.928 250.444 328.379 277.769 341.381C305.77 354.621 344.322 368.338 386.526 379.67C428.73 391.121 469.311 398.993 500.964 401.856C531.806 404.719 550.879 402.333 553.314 395.296C555.749 388.377 541.545 376.926 514.221 363.925C503.805 358.915 491.766 353.905 478.645 349.015C478.78 348.657 478.78 348.18 478.645 347.822C491.901 352.832 504.075 357.961 514.762 362.971C543.033 376.449 557.236 388.02 554.531 395.653C552.502 401.498 541.275 404.242 523.284 404.242C492.577 404.242 442.257 396.011 386.12 380.743C297.113 356.768 231.777 325.517 237.323 309.771Z" fill="url(#paint54_linear_2_7)"/>
</g>
<ellipse cx="522.337" cy="403.049" rx="16.0971" ry="14.1944" fill="url(#paint55_linear_2_7)"/>
<ellipse cx="1414.31" cy="452.312" rx="1.3527" ry="1.19281" fill="#0E0C46"/>
<ellipse cx="1537.54" cy="120.95" rx="2.84067" ry="2.50489" fill="url(#paint56_linear_2_7)"/>
<g opacity="0.1">
<path d="M517.738 413.426C519.226 413.426 520.714 413.188 522.066 412.949C521.255 412.472 520.714 411.637 520.714 410.802C520.714 409.371 522.066 408.178 523.69 408.178C525.313 408.178 526.666 409.371 526.666 410.802C526.666 410.921 526.666 411.041 526.666 411.16C531.129 408.655 533.97 404.242 533.97 399.232C533.97 396.131 532.888 393.387 530.994 391.001C535.593 393.506 538.705 398.039 538.705 403.049C538.705 410.921 531.535 417.243 522.607 417.243C517.197 417.243 512.327 414.858 509.351 411.16C511.651 412.591 514.627 413.426 517.738 413.426Z" fill="url(#paint57_linear_2_7)"/>
<path d="M513.274 402.333C512.597 402.333 512.056 401.856 512.056 401.26C512.056 400.663 512.597 400.186 513.274 400.186C513.95 400.186 514.491 400.663 514.491 401.26C514.491 401.856 513.95 402.333 513.274 402.333Z" fill="url(#paint58_linear_2_7)"/>
<ellipse cx="527.071" cy="398.039" rx="2.02905" ry="1.78921" fill="url(#paint59_linear_2_7)"/>
<ellipse cx="518.008" cy="394.222" rx="1.3527" ry="1.19281" fill="url(#paint60_linear_2_7)"/>
</g>
</g>
<defs>
<linearGradient id="paint0_linear_2_7" x1="-1243.87" y1="126.364" x2="-642.244" y2="1891.1" gradientUnits="userSpaceOnUse">
<stop stop-color="#12141D"/>
<stop offset="0.1192" stop-color="#12141D"/>
<stop offset="0.4846" stop-color="#033512"/>
<stop offset="0.7837" stop-color="#12141D"/>
<stop offset="0.9771" stop-color="#12141D"/>
</linearGradient>
<linearGradient id="paint1_linear_2_7" x1="1683.19" y1="100.575" x2="1450.64" y2="100.575" gradientUnits="userSpaceOnUse">
<stop offset="0.0162139" stop-color="#FFF2E0"/>
<stop offset="0.9811" stop-color="#B3D9D6" stop-opacity="0.01"/>
</linearGradient>
<linearGradient id="paint2_linear_2_7" x1="1767.13" y1="89.8679" x2="1427.42" y2="-104.161" gradientUnits="userSpaceOnUse">
<stop offset="0.067878" stop-color="#073415"/>
<stop offset="0.1534" stop-color="#14652D"/>
<stop offset="0.2823" stop-color="#0F4720"/>
<stop offset="0.4385" stop-color="#1A8F3E"/>
<stop offset="0.6023" stop-color="#2CD360"/>
</linearGradient>
<linearGradient id="paint3_linear_2_7" x1="331.415" y1="915.662" x2="285.082" y2="915.662" gradientUnits="userSpaceOnUse">
<stop offset="0.0137875" stop-color="#004980"/>
<stop offset="0.1624" stop-color="#0B5488"/>
<stop offset="0.4246" stop-color="#29709D"/>
<stop offset="0.7672" stop-color="#599FBE"/>
<stop offset="1" stop-color="#7DC2D8"/>
</linearGradient>
<linearGradient id="paint4_linear_2_7" x1="1124.21" y1="94.5522" x2="933.541" y2="94.5522" gradientUnits="userSpaceOnUse">
<stop offset="0.1209" stop-color="white"/>
<stop offset="1" stop-color="white" stop-opacity="0.01"/>
</linearGradient>
<linearGradient id="paint5_linear_2_7" x1="509.793" y1="246.634" x2="277.235" y2="246.634" gradientUnits="userSpaceOnUse">
<stop offset="0.0162139" stop-color="#FFF2E0"/>
<stop offset="0.9811" stop-color="#B3D9D6" stop-opacity="0.01"/>
</linearGradient>
<linearGradient id="paint6_linear_2_7" x1="1403.26" y1="589.439" x2="1270.89" y2="589.439" gradientUnits="userSpaceOnUse">
<stop offset="0.1209" stop-color="white"/>
<stop offset="1" stop-color="white" stop-opacity="0.01"/>
</linearGradient>
<linearGradient id="paint7_linear_2_7" x1="780.083" y1="934.066" x2="666.243" y2="934.066" gradientUnits="userSpaceOnUse">
<stop offset="0.1209" stop-color="white"/>
<stop offset="1" stop-color="white" stop-opacity="0.01"/>
</linearGradient>
<linearGradient id="paint8_linear_2_7" x1="1870.55" y1="494.39" x2="1756.71" y2="494.39" gradientUnits="userSpaceOnUse">
<stop offset="0.1209" stop-color="white"/>
<stop offset="1" stop-color="white" stop-opacity="0.01"/>
</linearGradient>
<linearGradient id="paint9_linear_2_7" x1="2185.36" y1="967.997" x2="2015.1" y2="388.256" gradientUnits="userSpaceOnUse">
<stop stop-color="#12141D"/>
<stop offset="0.0915703" stop-color="#212228"/>
<stop offset="0.2306" stop-color="#0F111B"/>
<stop offset="0.3989" stop-color="#317345"/>
<stop offset="0.4852" stop-color="#08481C"/>
<stop offset="0.5165" stop-color="#1F7E3C"/>
<stop offset="0.566" stop-color="#188539"/>
<stop offset="0.6274" stop-color="#085D22"/>
<stop offset="0.6984" stop-color="#33C25F"/>
<stop offset="0.7763" stop-color="#40EA74"/>
<stop offset="0.8505" stop-color="#AAF5C1"/>
</linearGradient>
<linearGradient id="paint10_linear_2_7" x1="1274.6" y1="962.587" x2="1396.42" y2="1010.23" gradientUnits="userSpaceOnUse">
<stop offset="0.1209" stop-color="white"/>
<stop offset="1" stop-color="white" stop-opacity="0.01"/>
</linearGradient>
<linearGradient id="paint11_linear_2_7" x1="1980.33" y1="735.698" x2="1632.52" y2="629.538" gradientUnits="userSpaceOnUse">
<stop offset="0.0228583" stop-color="#06461A"/>
<stop offset="0.5621" stop-color="#06461A" stop-opacity="0.4389"/>
<stop offset="0.9839" stop-color="#06461A" stop-opacity="0.01"/>
</linearGradient>
<linearGradient id="paint12_linear_2_7" x1="880.939" y1="537.901" x2="589.603" y2="1194.42" gradientUnits="userSpaceOnUse">
<stop offset="0.0189325" stop-color="#B3D9D6" stop-opacity="0.01"/>
<stop offset="0.9838" stop-color="#FFF2E0"/>
</linearGradient>
<linearGradient id="paint13_linear_2_7" x1="1421.03" y1="1085.33" x2="1421.03" y2="768.813" gradientUnits="userSpaceOnUse">
<stop stop-color="white" stop-opacity="0.01"/>
<stop offset="0.8791" stop-color="white"/>
</linearGradient>
<linearGradient id="paint14_linear_2_7" x1="1401.66" y1="1084.97" x2="1401.66" y2="796.261" gradientUnits="userSpaceOnUse">
<stop stop-color="white" stop-opacity="0.01"/>
<stop offset="0.8791" stop-color="white"/>
</linearGradient>
<linearGradient id="paint15_linear_2_7" x1="1329.28" y1="1082.17" x2="1329.28" y2="898.395" gradientUnits="userSpaceOnUse">
<stop stop-color="white" stop-opacity="0.01"/>
<stop offset="0.8791" stop-color="white"/>
</linearGradient>
<linearGradient id="paint16_linear_2_7" x1="1826.62" y1="667.419" x2="1697.43" y2="667.419" gradientUnits="userSpaceOnUse">
<stop offset="0.0112764" stop-color="#060B4D"/>
<stop offset="0.2153" stop-color="#050A44"/>
<stop offset="0.5544" stop-color="#03062A"/>
<stop offset="0.9846" stop-color="#000001"/>
<stop offset="0.9944"/>
</linearGradient>
<linearGradient id="paint17_linear_2_7" x1="1832.02" y1="702.482" x2="1827.4" y2="665.213" gradientUnits="userSpaceOnUse">
<stop offset="0.0228583" stop-color="#2C964D"/>
<stop offset="0.4326" stop-color="#176831"/>
<stop offset="1" stop-color="#073415"/>
</linearGradient>
<linearGradient id="paint18_linear_2_7" x1="1898.06" y1="809.376" x2="1721.71" y2="809.376" gradientUnits="userSpaceOnUse">
<stop offset="0.0112764" stop-color="#021C0A"/>
<stop offset="0.2153" stop-color="#021C0A"/>
<stop offset="0.5544" stop-color="#021C0A"/>
<stop offset="0.9846" stop-color="#000001"/>
<stop offset="0.9944"/>
</linearGradient>
<linearGradient id="paint19_linear_2_7" x1="1885.03" y1="874.018" x2="1860.09" y2="810.944" gradientUnits="userSpaceOnUse">
<stop offset="0.0228583" stop-color="#06461A"/>
<stop offset="0.4326" stop-color="#176630"/>
<stop offset="1" stop-color="#023311"/>
</linearGradient>
<linearGradient id="paint20_linear_2_7" x1="1918.05" y1="995.448" x2="1751.08" y2="995.448" gradientUnits="userSpaceOnUse">
<stop offset="0.0112764" stop-color="#03280E"/>
<stop offset="0.2153" stop-color="#05240F"/>
<stop offset="0.5544" stop-color="#0A2613"/>
<stop offset="0.9846" stop-color="#000001"/>
<stop offset="0.9944"/>
</linearGradient>
<linearGradient id="paint21_linear_2_7" x1="1966.6" y1="1076.3" x2="1942.87" y2="995.915" gradientUnits="userSpaceOnUse">
<stop offset="0.0228583" stop-color="#032B0F"/>
<stop offset="0.4326" stop-color="#186330"/>
<stop offset="1" stop-color="#057327"/>
</linearGradient>
<linearGradient id="paint22_linear_2_7" x1="1529.32" y1="889.728" x2="1446.76" y2="889.728" gradientUnits="userSpaceOnUse">
<stop offset="0.0112764" stop-color="#060B4D"/>
<stop offset="0.2153" stop-color="#050A44"/>
<stop offset="0.5544" stop-color="#03062A"/>
<stop offset="0.9846" stop-color="#000001"/>
<stop offset="0.9944"/>
</linearGradient>
<linearGradient id="paint23_linear_2_7" x1="1522.08" y1="920.516" x2="1509.64" y2="891.345" gradientUnits="userSpaceOnUse">
<stop offset="0.0228583" stop-color="#10BA45" stop-opacity="0.96"/>
<stop offset="0.4326" stop-color="#10BA45" stop-opacity="0.83"/>
<stop offset="1" stop-color="#10BA45"/>
</linearGradient>
<linearGradient id="paint24_linear_2_7" x1="1653.88" y1="1003.03" x2="1610.65" y2="1003.03" gradientUnits="userSpaceOnUse">
<stop offset="0.0112764" stop-color="#060B4D"/>
<stop offset="0.2153" stop-color="#050A44"/>
<stop offset="0.5544" stop-color="#03062A"/>
<stop offset="0.9846" stop-color="#000001"/>
<stop offset="0.9944"/>
</linearGradient>
<linearGradient id="paint25_linear_2_7" x1="1648.95" y1="1019.67" x2="1641.42" y2="1004.79" gradientUnits="userSpaceOnUse">
<stop offset="0.0228583" stop-color="#10BA45" stop-opacity="0.85"/>
<stop offset="0.4326" stop-color="#10BA45" stop-opacity="0.62"/>
<stop offset="1" stop-color="#10BA45" stop-opacity="0.85"/>
</linearGradient>
<linearGradient id="paint26_linear_2_7" x1="1698.82" y1="779.088" x2="1637.34" y2="779.088" gradientUnits="userSpaceOnUse">
<stop offset="0.0112764" stop-color="#073415"/>
<stop offset="0.2153" stop-color="#073415"/>
<stop offset="0.5544" stop-color="#073415"/>
<stop offset="0.9846" stop-color="#000001"/>
<stop offset="0.9944"/>
</linearGradient>
<linearGradient id="paint27_linear_2_7" x1="1696.95" y1="800.851" x2="1689.62" y2="778.138" gradientUnits="userSpaceOnUse">
<stop offset="0.0228583" stop-color="#00561B"/>
<stop offset="0.4326" stop-color="#127731"/>
<stop offset="1" stop-color="#246237"/>
</linearGradient>
<linearGradient id="paint28_linear_2_7" x1="1499.97" y1="1014.45" x2="1376.18" y2="1014.45" gradientUnits="userSpaceOnUse">
<stop offset="0.0112764" stop-color="#053414"/>
<stop offset="0.2153" stop-color="#0B3317"/>
<stop offset="0.5544" stop-color="#03220D"/>
<stop offset="0.9846" stop-color="#000001"/>
<stop offset="0.9944"/>
</linearGradient>
<linearGradient id="paint29_linear_2_7" x1="1498.29" y1="1062.41" x2="1484.19" y2="1019" gradientUnits="userSpaceOnUse">
<stop offset="0.0228583" stop-color="#135A29"/>
<stop offset="0.4326" stop-color="#268343"/>
<stop offset="1" stop-color="#026F24"/>
</linearGradient>
<linearGradient id="paint30_linear_2_7" x1="1283.38" y1="803.248" x2="1199.97" y2="803.248" gradientUnits="userSpaceOnUse">
<stop offset="0.0112764" stop-color="#060B4D"/>
<stop offset="0.2153" stop-color="#050A44"/>
<stop offset="0.5544" stop-color="#03062A"/>
<stop offset="0.9846" stop-color="#000001"/>
<stop offset="0.9944"/>
</linearGradient>
<linearGradient id="paint31_linear_2_7" x1="1241.17" y1="157.166" x2="1233.35" y2="157.166" gradientUnits="userSpaceOnUse">
<stop offset="0.042844" stop-color="#80C0DA"/>
<stop offset="0.1913" stop-color="#9CCEE2"/>
<stop offset="0.4434" stop-color="#C7E3EF"/>
<stop offset="0.6711" stop-color="#E6F2F8"/>
<stop offset="0.8644" stop-color="#F8FCFD"/>
<stop offset="1" stop-color="white"/>
</linearGradient>
<linearGradient id="paint32_linear_2_7" x1="1228.1" y1="83.5654" x2="1185.9" y2="83.5654" gradientUnits="userSpaceOnUse">
<stop offset="0.0112764" stop-color="#060B4D"/>
<stop offset="0.2153" stop-color="#050A44"/>
<stop offset="0.5544" stop-color="#03062A"/>
<stop offset="0.9846" stop-color="#000001"/>
<stop offset="0.9944"/>
</linearGradient>
<linearGradient id="paint33_linear_2_7" x1="1007.56" y1="915.721" x2="945.895" y2="915.721" gradientUnits="userSpaceOnUse">
<stop offset="0.0112764" stop-color="#060B4D"/>
<stop offset="0.2153" stop-color="#050A44"/>
<stop offset="0.5544" stop-color="#03062A"/>
<stop offset="0.9846" stop-color="#000001"/>
<stop offset="0.9944"/>
</linearGradient>
<linearGradient id="paint34_linear_2_7" x1="476.357" y1="68.1963" x2="465.448" y2="68.1963" gradientUnits="userSpaceOnUse">
<stop offset="0.0112764" stop-color="#060B4D"/>
<stop offset="0.2153" stop-color="#050A44"/>
<stop offset="0.5544" stop-color="#03062A"/>
<stop offset="0.9846" stop-color="#000001"/>
<stop offset="0.9944"/>
</linearGradient>
<linearGradient id="paint35_linear_2_7" x1="519.222" y1="65.807" x2="479.467" y2="65.807" gradientUnits="userSpaceOnUse">
<stop offset="0.0112764" stop-color="#060B4D"/>
<stop offset="0.2153" stop-color="#050A44"/>
<stop offset="0.5544" stop-color="#03062A"/>
<stop offset="0.9846" stop-color="#000001"/>
<stop offset="0.9944"/>
</linearGradient>
<linearGradient id="paint36_linear_2_7" x1="503.34" y1="76.3156" x2="481.992" y2="76.3156" gradientUnits="userSpaceOnUse">
<stop offset="0.0112764" stop-color="#060B4D"/>
<stop offset="0.2153" stop-color="#050A44"/>
<stop offset="0.5544" stop-color="#03062A"/>
<stop offset="0.9846" stop-color="#000001"/>
<stop offset="0.9944"/>
</linearGradient>
<linearGradient id="paint37_linear_2_7" x1="492.296" y1="59.12" x2="466.038" y2="59.12" gradientUnits="userSpaceOnUse">
<stop offset="0.0112764" stop-color="#060B4D"/>
<stop offset="0.2153" stop-color="#050A44"/>
<stop offset="0.5544" stop-color="#03062A"/>
<stop offset="0.9846" stop-color="#000001"/>
<stop offset="0.9944"/>
</linearGradient>
<linearGradient id="paint38_linear_2_7" x1="1095.96" y1="46.3064" x2="1049.46" y2="46.3064" gradientUnits="userSpaceOnUse">
<stop offset="0.0112764" stop-color="#060B4D"/>
<stop offset="0.2153" stop-color="#050A44"/>
<stop offset="0.5544" stop-color="#03062A"/>
<stop offset="0.9846" stop-color="#000001"/>
<stop offset="0.9944"/>
</linearGradient>
<linearGradient id="paint39_linear_2_7" x1="1038.91" y1="51.3219" x2="1020.05" y2="51.3219" gradientUnits="userSpaceOnUse">
<stop offset="0.0112764" stop-color="#060B4D"/>
<stop offset="0.2153" stop-color="#050A44"/>
<stop offset="0.5544" stop-color="#03062A"/>
<stop offset="0.9846" stop-color="#000001"/>
<stop offset="0.9944"/>
</linearGradient>
<linearGradient id="paint40_linear_2_7" x1="1086.51" y1="33.2224" x2="1067.82" y2="33.2224" gradientUnits="userSpaceOnUse">
<stop offset="0.0112764" stop-color="#060B4D"/>
<stop offset="0.2153" stop-color="#050A44"/>
<stop offset="0.5544" stop-color="#03062A"/>
<stop offset="0.9846" stop-color="#000001"/>
<stop offset="0.9944"/>
</linearGradient>
<linearGradient id="paint41_linear_2_7" x1="536.075" y1="223.458" x2="250.952" y2="223.458" gradientUnits="userSpaceOnUse">
<stop offset="0.0189325" stop-color="#B3D9D6" stop-opacity="0.01"/>
<stop offset="0.9838" stop-color="#FFF2E0"/>
</linearGradient>
<linearGradient id="paint42_linear_2_7" x1="509.793" y1="246.634" x2="277.235" y2="246.634" gradientUnits="userSpaceOnUse">
<stop offset="0.0162139" stop-color="#FFF2E0"/>
<stop offset="0.9811" stop-color="#B3D9D6" stop-opacity="0.01"/>
</linearGradient>
<linearGradient id="paint43_linear_2_7" x1="587.28" y1="236.586" x2="247.574" y2="42.5572" gradientUnits="userSpaceOnUse">
<stop offset="0.067878" stop-color="#073415"/>
<stop offset="0.1534" stop-color="#14652D"/>
<stop offset="0.2823" stop-color="#0F4720"/>
<stop offset="0.4385" stop-color="#1A8F3E"/>
<stop offset="0.6023" stop-color="#2CD360"/>
</linearGradient>
<linearGradient id="paint44_linear_2_7" x1="478.341" y1="281.499" x2="338.837" y2="281.499" gradientUnits="userSpaceOnUse">
<stop offset="0.0112764" stop-color="#073415"/>
<stop offset="0.1676" stop-color="#073415"/>
<stop offset="0.4275" stop-color="#12692D"/>
<stop offset="0.7567" stop-color="#1F823E"/>
<stop offset="0.9944" stop-color="#30A755"/>
</linearGradient>
<linearGradient id="paint45_linear_2_7" x1="470.864" y1="364.154" x2="411.607" y2="364.154" gradientUnits="userSpaceOnUse">
<stop offset="0.0112764" stop-color="#060B4D"/>
<stop offset="0.2153" stop-color="#050A44"/>
<stop offset="0.5544" stop-color="#03062A"/>
<stop offset="0.9846" stop-color="#000001"/>
<stop offset="0.9944"/>
</linearGradient>
<linearGradient id="paint46_linear_2_7" x1="399.863" y1="351.54" x2="346.582" y2="351.54" gradientUnits="userSpaceOnUse">
<stop offset="0.0112764" stop-color="#060B4D"/>
<stop offset="0.2153" stop-color="#050A44"/>
<stop offset="0.5544" stop-color="#03062A"/>
<stop offset="0.9846" stop-color="#000001"/>
<stop offset="0.9944"/>
</linearGradient>
<linearGradient id="paint47_linear_2_7" x1="404.23" y1="327.572" x2="362.271" y2="327.572" gradientUnits="userSpaceOnUse">
<stop offset="0.0112764" stop-color="#060B4D"/>
<stop offset="0.2153" stop-color="#050A44"/>
<stop offset="0.5544" stop-color="#03062A"/>
<stop offset="0.9846" stop-color="#000001"/>
<stop offset="0.9944"/>
</linearGradient>
<linearGradient id="paint48_linear_2_7" x1="462.608" y1="274.673" x2="394.72" y2="274.673" gradientUnits="userSpaceOnUse">
<stop offset="0.0112764" stop-color="#060B4D"/>
<stop offset="0.2153" stop-color="#050A44"/>
<stop offset="0.5544" stop-color="#03062A"/>
<stop offset="0.9846" stop-color="#000001"/>
<stop offset="0.9944"/>
</linearGradient>
<linearGradient id="paint49_linear_2_7" x1="462.608" y1="281.537" x2="429.765" y2="281.537" gradientUnits="userSpaceOnUse">
<stop offset="0.0112764" stop-color="#060B4D"/>
<stop offset="0.2153" stop-color="#050A44"/>
<stop offset="0.5544" stop-color="#03062A"/>
<stop offset="0.9846" stop-color="#000001"/>
<stop offset="0.9944"/>
</linearGradient>
<linearGradient id="paint50_linear_2_7" x1="470.864" y1="379.504" x2="415.469" y2="379.504" gradientUnits="userSpaceOnUse">
<stop offset="0.0112764" stop-color="#060B4D"/>
<stop offset="0.2153" stop-color="#050A44"/>
<stop offset="0.5544" stop-color="#03062A"/>
<stop offset="0.9846" stop-color="#000001"/>
<stop offset="0.9944"/>
</linearGradient>
<linearGradient id="paint51_linear_2_7" x1="328.867" y1="322.731" x2="308.687" y2="322.731" gradientUnits="userSpaceOnUse">
<stop offset="0.0112764" stop-color="#060B4D"/>
<stop offset="0.2153" stop-color="#050A44"/>
<stop offset="0.5544" stop-color="#03062A"/>
<stop offset="0.9846" stop-color="#000001"/>
<stop offset="0.9944"/>
</linearGradient>
<linearGradient id="paint52_linear_2_7" x1="357.211" y1="372.891" x2="333.539" y2="372.891" gradientUnits="userSpaceOnUse">
<stop offset="0.0112764" stop-color="#060B4D"/>
<stop offset="0.2153" stop-color="#050A44"/>
<stop offset="0.5544" stop-color="#03062A"/>
<stop offset="0.9846" stop-color="#000001"/>
<stop offset="0.9944"/>
</linearGradient>
<linearGradient id="paint53_linear_2_7" x1="358.003" y1="285.721" x2="334.96" y2="285.721" gradientUnits="userSpaceOnUse">
<stop offset="0.0112764" stop-color="#060B4D"/>
<stop offset="0.2153" stop-color="#050A44"/>
<stop offset="0.5544" stop-color="#03062A"/>
<stop offset="0.9846" stop-color="#000001"/>
<stop offset="0.9944"/>
</linearGradient>
<linearGradient id="paint54_linear_2_7" x1="554.727" y1="301.286" x2="236.934" y2="301.286" gradientUnits="userSpaceOnUse">
<stop stop-color="white" stop-opacity="0.01"/>
<stop offset="0.8791" stop-color="white"/>
</linearGradient>
<linearGradient id="paint55_linear_2_7" x1="538.537" y1="381.619" x2="489.834" y2="381.619" gradientUnits="userSpaceOnUse">
<stop offset="0.0137875" stop-color="#073415"/>
<stop offset="0.1498" stop-color="#155E2C"/>
<stop offset="0.3897" stop-color="#11642B"/>
<stop offset="0.3898" stop-color="#073415"/>
<stop offset="0.7032" stop-color="#219244"/>
<stop offset="1" stop-color="#3AD86B"/>
</linearGradient>
<linearGradient id="paint56_linear_2_7" x1="1540.37" y1="118.472" x2="1534.62" y2="118.472" gradientUnits="userSpaceOnUse">
<stop offset="0.0112764" stop-color="#060B4D"/>
<stop offset="0.2153" stop-color="#050A44"/>
<stop offset="0.5544" stop-color="#03062A"/>
<stop offset="0.9846" stop-color="#000001"/>
<stop offset="0.9944"/>
</linearGradient>
<linearGradient id="paint57_linear_2_7" x1="538.537" y1="391.046" x2="509.202" y2="391.046" gradientUnits="userSpaceOnUse">
<stop offset="0.0112764" stop-color="#060B4D"/>
<stop offset="0.2153" stop-color="#050A44"/>
<stop offset="0.5544" stop-color="#03062A"/>
<stop offset="0.9846" stop-color="#000001"/>
<stop offset="0.9944"/>
</linearGradient>
<linearGradient id="paint58_linear_2_7" x1="514.507" y1="400.104" x2="512.038" y2="400.104" gradientUnits="userSpaceOnUse">
<stop offset="0.0112764" stop-color="#060B4D"/>
<stop offset="0.2153" stop-color="#050A44"/>
<stop offset="0.5544" stop-color="#03062A"/>
<stop offset="0.9846" stop-color="#000001"/>
<stop offset="0.9944"/>
</linearGradient>
<linearGradient id="paint59_linear_2_7" x1="529.091" y1="396.283" x2="525.131" y2="396.283" gradientUnits="userSpaceOnUse">
<stop offset="0.0112764" stop-color="#060B4D"/>
<stop offset="0.2153" stop-color="#050A44"/>
<stop offset="0.5544" stop-color="#03062A"/>
<stop offset="0.9846" stop-color="#000001"/>
<stop offset="0.9944"/>
</linearGradient>
<linearGradient id="paint60_linear_2_7" x1="519.307" y1="393.079" x2="516.604" y2="393.079" gradientUnits="userSpaceOnUse">
<stop offset="0.0112764" stop-color="#060B4D"/>
<stop offset="0.2153" stop-color="#050A44"/>
<stop offset="0.5544" stop-color="#03062A"/>
<stop offset="0.9846" stop-color="#000001"/>
<stop offset="0.9944"/>
</linearGradient>
<clipPath id="clip0_2_7">
<rect width="1920" height="1080" fill="white"/>
</clipPath>
</defs>
</svg>
